<svg xmlns="http://www.w3.org/2000/svg" width="77" height="24" viewBox="0 0 77 24"><path d="M.165 17.664l-.165-2.449 1.316-.141v-6.595l-1.221-.141.141-2.45h4.09l.283.825h.023s1.058-1.249 3.785-1.249c2.797 0 4.302 1.178 4.302 3.957v5.841l1.292.095-.142 2.308h-4.607v-7.607c0-1.271-.563-1.766-2.044-1.766-1.552 0-2.445.848-2.445.848v6.123l1.293.095-.141 2.308h-5.76zM25.809 8.455c.118.4.188.848.188 1.343 0 2.896-2.28 4.499-5.266 4.499 0 0-1.716 0-1.716.683 0 .471.329.848 2.797.896 3.22.093 5.148 1.06 5.148 3.603 0 2.521-1.74 4.522-6.089 4.522-4.466 0-6.088-2.024-6.088-4.333 0-1.531.822-2.379 1.927-2.851-.258-.424-.399-.989-.399-1.672 0-.801.399-1.343.94-1.767-1.222-.754-1.998-1.979-1.998-3.58 0-3.062 2.773-4.334 5.618-4.334 1.128 0 2.187.212 3.033.66l2.797-.236.164 2.497-1.056.07zm-6.629 9.868c-.658.189-1.199.659-1.199 1.344 0 1.036.87 1.86 2.892 1.86 1.998 0 2.821-.706 2.821-1.72-.001-1.648-2.351-1.082-4.514-1.484zm-.588-8.525c0 1.508.846 2.261 2.045 2.261 1.199 0 1.999-.753 1.999-2.331 0-1.484-.823-1.908-1.952-1.908-1.104-.001-2.092.447-2.092 1.978zM34.81 9.492l-.188-1.061c-.376-.283-1.034-.636-1.833-.636-.847 0-1.505.354-1.505.99 0 1.837 6.229 1.366 6.229 5.205 0 2.402-1.528 4.122-5.548 4.122-2.351 0-3.902-.59-3.902-.59l-.306-3.532 2.116-.142.235 1.673c.564.141 1.175.235 1.763.235 1.458 0 2.092-.564 2.092-1.342 0-1.908-6.088-1.037-6.088-5.23 0-2.307 1.974-3.721 4.396-3.721 1.104 0 2.092.448 2.751.872l.375-.635h1.693l-.023 3.792h-2.257zM42.096 12.766c.282 2.025 1.363 2.827 3.128 2.827 1.832 0 2.962-1.296 2.962-1.296l1.573 1.695s-1.433 2.12-4.701 2.12c-3.995 0-6.464-2.167-6.464-6.383 0-4.169 2.562-6.266 6.018-6.266s5.336 1.86 5.336 5.229c0 1.225-.471 2.073-.471 2.073h-7.381zm-.023-2.238h4.701l.023-.519c0-1.271-.611-2.143-2.187-2.143s-2.326.896-2.537 2.662zM54.506 12.766c.282 2.025 1.364 2.827 3.127 2.827 1.834 0 2.962-1.296 2.962-1.296l1.575 1.695s-1.434 2.12-4.701 2.12c-3.997 0-6.466-2.167-6.466-6.383 0-4.169 2.563-6.266 6.018-6.266 3.457 0 5.337 1.86 5.337 5.229 0 1.225-.469 2.073-.469 2.073h-7.383zm-.024-2.238h4.702l.023-.519c0-1.271-.612-2.143-2.188-2.143-1.572.001-2.325.896-2.537 2.662zM72.698 17.664l-.281-.824s-.94 1.272-3.598 1.272c-3.267 0-5.429-2.756-5.429-6.336 0-3.863 2.044-6.313 5.429-6.313 2.352 0 3.339.848 3.339.848h.117v-3.72l-1.246-.141.165-2.45h4.514v15.262l1.292.094-.141 2.308h-4.161zm-.423-3.32v-5.489s-.729-.871-2.256-.871c-2.163 0-3.033 1.154-3.033 3.698 0 2.543.894 3.862 2.892 3.862 1.552.001 2.326-1.106 2.397-1.2z"/></svg>